<?xml version="1.0" encoding="utf-8"?>
<?xml-stylesheet type="text/xsl" href="rss1.xsl"?>
<rss version="2.0" xmlns:atom="http://www.w3.org/2005/Atom" xmlns:content="http://purl.org/rss/1.0/modules/content/" xmlns:dc="http://purl.org/dc/elements/1.1/" xmlns:media="http://search.yahoo.com/mrss/">
<channel>
 <title>Getty</title>
 <link>http://www.gettyimg.com/</link>
 <atom:link href="http://www.gettyimg.com/" rel="self" type="application/rss+xml" />

 
                <item>
                <title><![CDATA[【HD Live Performances】HDTV - f(x) - Chu~♡ Live @ SBS Gayo Daejun 2009 1080i HDTV MPEG2 DD2.0-XXI]]></title>
                <link><![CDATA[https://sharemania.us/threads/f-x-chu-%E2%99%A1-live-sbs-gayo-daejun-2009-1080i-hdtv-mpeg2-dd2-0-xxi.229206/]]></link>
                <description><![CDATA[<article>
<blockquote class="messageText SelectQuoteContainer ugc baseHtml">
<img src="https://imgur.com/G9gzLUZ.png" class="bbCodeImage LbImage" alt="[​IMG]" data-url="https://imgur.com/G9gzLUZ.png" style=""> <br>
<div style="text-align: center">
<div class="bbCodeBlock bbCodeVfcHH HiddenContent">
<div class="attribution type">Hidden Content:</div>
<blockquote>You must either reply or click 'Like' to see the hidden information contained here.</blockquote>
</div></div>
<div class="messageTextEndMarker">&nbsp;</div>
</blockquote>
</article>]]></description>
                <author><![CDATA[XXI]]></author>
                </item>

                
                <item>
                <title><![CDATA[【HD Live Performances】HDTV - MBLAQ - Oh yeah! Live @ SBS Gayo Daejun 2009 1080i HDTV MPEG2 DD2.0-XXI]]></title>
                <link><![CDATA[https://sharemania.us/threads/mblaq-oh-yeah-live-sbs-gayo-daejun-2009-1080i-hdtv-mpeg2-dd2-0-xxi.229209/]]></link>
                <description><![CDATA[<article>
<blockquote class="messageText SelectQuoteContainer ugc baseHtml">
<img src="https://imgur.com/DnYsGzX.png" class="bbCodeImage LbImage" alt="[​IMG]" data-url="https://imgur.com/DnYsGzX.png" style=""> <br>
<div style="text-align: center">
<div class="bbCodeBlock bbCodeVfcHH HiddenContent">
<div class="attribution type">Hidden Content:</div>
<blockquote>You must either reply or click 'Like' to see the hidden information contained here.</blockquote>
</div></div>
<div class="messageTextEndMarker">&nbsp;</div>
</blockquote>
</article>]]></description>
                <author><![CDATA[XXI]]></author>
                </item>

                
                <item>
                <title><![CDATA[【HD Live Performances】HDTV - MBLAQ &amp; BEAST - Dance Battle Live @ SBS Gayo Daejun 2009 1080i HDTV MPEG2 DD2.0-XXI]]></title>
                <link><![CDATA[https://sharemania.us/threads/mblaq-beast-dance-battle-live-sbs-gayo-daejun-2009-1080i-hdtv-mpeg2-dd2-0-xxi.229207/]]></link>
                <description><![CDATA[<article>
<blockquote class="messageText SelectQuoteContainer ugc baseHtml">
<img src="https://imgur.com/zxzHPmn.png" class="bbCodeImage LbImage" alt="[​IMG]" data-url="https://imgur.com/zxzHPmn.png" style=""> <br>
<div style="text-align: center">
<div class="bbCodeBlock bbCodeVfcHH HiddenContent">
<div class="attribution type">Hidden Content:</div>
<blockquote>You must either reply or click 'Like' to see the hidden information contained here.</blockquote>
</div></div>
<div class="messageTextEndMarker">&nbsp;</div>
</blockquote>
</article>]]></description>
                <author><![CDATA[XXI]]></author>
                </item>

                
                <item>
                <title><![CDATA[【Albums (lossless)】CD Image - Cher - The Greatest Hits (1999)(Uncompressed + Cue)(EAC)]]></title>
                <link><![CDATA[https://sharemania.us/threads/cher-the-greatest-hits-1999-uncompressed-cue-eac.229210/]]></link>
                <description><![CDATA[<article>
<blockquote class="messageText SelectQuoteContainer ugc baseHtml">
<img src="https://i.imgur.com/2HTepWU.jpg" class="bbCodeImage LbImage" alt="[​IMG]" data-url="https://i.imgur.com/2HTepWU.jpg" style=""> <br>
<br>
<div class="bbCodeBlock bbCodeVfcHH HiddenContent">
<div class="attribution type">Hidden Content:</div>
<blockquote>You must either reply or click 'Like' to see the hidden information contained here.</blockquote>
</div>
<div class="messageTextEndMarker">&nbsp;</div>
</blockquote>
</article>]]></description>
                <author><![CDATA[garry19877]]></author>
                </item>

                
                <item>
                <title><![CDATA[【HD Live Performances】HDTV - Beast - Mystery Live @ SBS Gayo Daejun 2009 1080i HDTV MPEG2 DD2.0-XXI]]></title>
                <link><![CDATA[https://sharemania.us/threads/beast-mystery-live-sbs-gayo-daejun-2009-1080i-hdtv-mpeg2-dd2-0-xxi.229208/]]></link>
                <description><![CDATA[<article>
<blockquote class="messageText SelectQuoteContainer ugc baseHtml">
<img src="https://imgur.com/lBWyrAu.png" class="bbCodeImage LbImage" alt="[​IMG]" data-url="https://imgur.com/lBWyrAu.png" style=""> <br>
<div style="text-align: center">
<div class="bbCodeBlock bbCodeVfcHH HiddenContent">
<div class="attribution type">Hidden Content:</div>
<blockquote>You must either reply or click 'Like' to see the hidden information contained here.</blockquote>
</div></div>
<div class="messageTextEndMarker">&nbsp;</div>
</blockquote>
</article>]]></description>
                <author><![CDATA[XXI]]></author>
                </item>

                
                <item>
                <title><![CDATA[【Cinema Center】SERIES - Barbie: A Touch of Magic - Season 1 - 1080p Netflix WEB-DL DDP5.1 x264-KHN]]></title>
                <link><![CDATA[https://sharemania.us/threads/barbie-a-touch-of-magic-season-1-1080p-netflix-web-dl-ddp5-1-x264-khn.229211/]]></link>
                <description><![CDATA[<article>
<blockquote class="messageText SelectQuoteContainer ugc baseHtml">
Barbie: A Touch of Magic:<img src="https://i.imgur.com/hkkWZ2z.jpg" class="bbCodeImage LbImage" alt="[​IMG]" data-url="https://i.imgur.com/hkkWZ2z.jpg" style=""> <br>
<br>
<div class="bbCodeBlock bbCodeQuote">
<aside>
<blockquote class="quoteContainer"><div class="quote"><i><b>Synopsis:</b></i><br>
Barbie "Malibu" Roberts and Barbie "Brooklyn" Roberts discover a mysterious baby Pegasus on the beach in Malibu and work to find out where the magical horse came from. While they try to find out how to get little Peggy home, Malibu and Brooklyn, with the help of Malibu's sisters and best friend Ken, have to protect their four-legged friend from a Glyph, the fantastical creature that followed Peggy in hopes of stealing the little horse's wings.</div><div class="quoteExpand">Click to expand...</div></blockquote>
</aside>
</div>
<div class="ToggleTriggerAnchor bbCodeSpoilerContainer">
<button type="button" class="button bbCodeSpoilerButton ToggleTrigger Tooltip JsOnly" data-target="> .SpoilerTarget"><span>Spoiler: <span class="SpoilerTitle">MediaInfo</span></span></button>
<div class="SpoilerTarget bbCodeSpoilerText">General<br>
Unique ID : 191006747466280042676236746859428012832 (0x8FB28FBB5A66FE1480A1A95B5C356320)<br>
Complete name : Barbie.a.Touch.of.Magic.S01E01.When.Barbie.Met.Peggy.1080p.NF.WEB-DL.DDP5.1.x264-KHN.mkv<br>
Format : Matroska<br>
Format version : Version 4<br>
File size : 907 MiB<br>
Duration : 23 min 15 s<br>
Overall bit rate mode : Variable<br>
Overall bit rate : 5 455 kb/s<br>
Encoded date : UTC 2023-09-14 09:03:15<br>
Writing application : mkvmerge v75.0.0 ('Goliath') 64-bit<br>
Writing library : libebml v1.4.4 + libmatroska v1.7.1<br>
<br>
Video<br>
ID : 1<br>
Format : AVC<br>
Format/Info : Advanced Video Codec<br>
Format profile : Main@L4<br>
Format settings : CABAC / 3 Ref Frames<br>
Format settings, CABAC : Yes<br>
Format settings, Reference frames : 3 frames<br>
Codec ID : V_MPEG4/ISO/AVC<br>
Duration : 23 min 14 s<br>
Bit rate mode : Variable<br>
Bit rate : 5 000 kb/s<br>
Maximum bit rate : 7 500 kb/s<br>
Width : 1 920 pixels<br>
Height : 1 080 pixels<br>
Display aspect ratio : 16:9<br>
Frame rate mode : Constant<br>
Frame rate : 23.976 (24000/1001) FPS<br>
Color space : YUV<br>
Chroma subsampling : 4:2:0<br>
Bit depth : 8 bits<br>
Scan type : Progressive<br>
Bits/(Pixel*Frame) : 0.101<br>
Stream size : 800 MiB (88%)<br>
Writing library : x264 core 148 r2727 7d026e8<br>
Encoding settings : cabac=1 / ref=3 / deblock=1:0:0 / analyse=0x1:0x111 / me=umh / subme=10 / psy=1 / psy_rd=1.00:0.00 / mixed_ref=1 / me_range=24 / chroma_me=1 / trellis=2 / 8x8dct=0 / cqm=0 / deadzone=21,11 / fast_pskip=1 / chroma_qp_offset=-2 / threads=6 / lookahead_threads=1 / sliced_threads=0 / nr=0 / decimate=1 / interlaced=0 / bluray_compat=0 / stitchable=1 / constrained_intra=0 / bframes=2 / b_pyramid=0 / b_adapt=2 / b_bias=0 / direct=3 / weightb=1 / open_gop=0 / weightp=2 / keyint=240 / keyint_min=121 / scenecut=0 / intra_refresh=0 / rc_lookahead=48 / rc=2pass / mbtree=1 / bitrate=5000 / ratetol=1.0 / qcomp=0.50 / qpmin=6 / qpmax=51 / qpstep=4 / cplxblur=20.0 / qblur=0.5 / vbv_maxrate=7500 / vbv_bufsize=10000 / nal_hrd=vbr / filler=0 / ip_ratio=1.40 / aq=1:1.00<br>
Default : Yes<br>
Forced : No<br>
<br>
Audio<br>
ID : 2<br>
Format : E-AC-3<br>
Format/Info : Enhanced AC-3<br>
Commercial name : Dolby Digital Plus<br>
Codec ID : A_EAC3<br>
Duration : 23 min 15 s<br>
Bit rate mode : Constant<br>
Bit rate : 640 kb/s<br>
Channel(s) : 6 channels<br>
Channel layout : L R C LFE Ls Rs<br>
Sampling rate : 48.0 kHz<br>
Frame rate : 31.250 FPS (1536 SPF)<br>
Compression mode : Lossy<br>
Stream size : 106 MiB (12%)<br>
Title : English<br>
Language : English<br>
Service kind : Complete Main<br>
Default : No<br>
Forced : No<br>
<br>
Text #1<br>
ID : 3<br>
Format : UTF-8<br>
Codec ID : S_TEXT/UTF8<br>
Codec ID/Info : UTF-8 Plain Text<br>
Duration : 21 min 36 s<br>
Bit rate : 110 b/s<br>
Frame rate : 0.250 FPS<br>
Count of elements : 324<br>
Stream size : 17.6 KiB (0%)<br>
Title : Arabic<br>
Language : Arabic<br>
Default : No<br>
Forced : No<br>
<br>
Text #2<br>
ID : 4<br>
Format : UTF-8<br>
Codec ID : S_TEXT/UTF8<br>
Codec ID/Info : UTF-8 Plain Text<br>
Duration : 21 min 36 s<br>
Bit rate : 65 b/s<br>
Frame rate : 0.254 FPS<br>
Count of elements : 329<br>
Stream size : 10.3 KiB (0%)<br>
Title : Chinese Simplified<br>
Language : Chinese<br>
Default : No<br>
Forced : No<br>
<br>
Text #3<br>
ID : 5<br>
Format : UTF-8<br>
Codec ID : S_TEXT/UTF8<br>
Codec ID/Info : UTF-8 Plain Text<br>
Duration : 21 min 36 s<br>
Bit rate : 65 b/s<br>
Frame rate : 0.252 FPS<br>
Count of elements : 326<br>
Stream size : 10.4 KiB (0%)<br>
Title : Chinese Traditional<br>
Language : Chinese<br>
Default : No<br>
Forced : No<br>
<br>
Text #4<br>
ID : 6<br>
Format : UTF-8<br>
Codec ID : S_TEXT/UTF8<br>
Codec ID/Info : UTF-8 Plain Text<br>
Duration : 21 min 29 s<br>
Bit rate : 64 b/s<br>
Frame rate : 0.208 FPS<br>
Count of elements : 268<br>
Stream size : 10.1 KiB (0%)<br>
Title : Danish<br>
Language : Danish<br>
Default : No<br>
Forced : No<br>
<br>
Text #5<br>
ID : 7<br>
Format : UTF-8<br>
Codec ID : S_TEXT/UTF8<br>
Codec ID/Info : UTF-8 Plain Text<br>
Duration : 21 min 29 s<br>
Bit rate : 63 b/s<br>
Frame rate : 0.219 FPS<br>
Count of elements : 282<br>
Stream size : 10.0 KiB (0%)<br>
Title : Dutch<br>
Language : Dutch<br>
Default : No<br>
Forced : No<br>
<br>
Text #6<br>
ID : 8<br>
Format : UTF-8<br>
Codec ID : S_TEXT/UTF8<br>
Codec ID/Info : UTF-8 Plain Text<br>
Duration : 21 min 51 s<br>
Bit rate : 76 b/s<br>
Frame rate : 0.351 FPS<br>
Count of elements : 461<br>
Stream size : 12.3 KiB (0%)<br>
Title : English [SDH]<br>
Language : English<br>
Default : No<br>
Forced : No<br>
<br>
Text #7<br>
ID : 9<br>
Format : UTF-8<br>
Codec ID : S_TEXT/UTF8<br>
Codec ID/Info : UTF-8 Plain Text<br>
Duration : 21 min 19 s<br>
Bit rate : 66 b/s<br>
Frame rate : 0.289 FPS<br>
Count of elements : 370<br>
Stream size : 10.4 KiB (0%)<br>
Title : English<br>
Language : English<br>
Default : No<br>
Forced : No<br>
<br>
Text #8<br>
ID : 10<br>
Format : UTF-8<br>
Codec ID : S_TEXT/UTF8<br>
Codec ID/Info : UTF-8 Plain Text<br>
Duration : 21 min 29 s<br>
Bit rate : 58 b/s<br>
Frame rate : 0.230 FPS<br>
Count of elements : 297<br>
Stream size : 9.25 KiB (0%)<br>
Title : Finnish<br>
Language : Finnish<br>
Default : No<br>
Forced : No<br>
<br>
Text #9<br>
ID : 11<br>
Format : UTF-8<br>
Codec ID : S_TEXT/UTF8<br>
Codec ID/Info : UTF-8 Plain Text<br>
Duration : 21 min 29 s<br>
Bit rate : 63 b/s<br>
Frame rate : 0.240 FPS<br>
Count of elements : 309<br>
Stream size : 10.00 KiB (0%)<br>
Title : French<br>
Language : French<br>
Default : No<br>
Forced : No<br>
<br>
Text #10<br>
ID : 12<br>
Format : UTF-8<br>
Codec ID : S_TEXT/UTF8<br>
Codec ID/Info : UTF-8 Plain Text<br>
Duration : 21 min 29 s<br>
Bit rate : 65 b/s<br>
Frame rate : 0.250 FPS<br>
Count of elements : 322<br>
Stream size : 10.3 KiB (0%)<br>
Title : German<br>
Language : German<br>
Default : No<br>
Forced : No<br>
<br>
Text #11<br>
ID : 13<br>
Format : UTF-8<br>
Codec ID : S_TEXT/UTF8<br>
Codec ID/Info : UTF-8 Plain Text<br>
Duration : 21 min 36 s<br>
Bit rate : 155 b/s<br>
Frame rate : 0.251 FPS<br>
Count of elements : 326<br>
Stream size : 24.7 KiB (0%)<br>
Title : Hindi<br>
Language : Hindi<br>
Default : No<br>
Forced : No<br>
<br>
Text #12<br>
ID : 14<br>
Format : UTF-8<br>
Codec ID : S_TEXT/UTF8<br>
Codec ID/Info : UTF-8 Plain Text<br>
Duration : 21 min 36 s<br>
Bit rate : 55 b/s<br>
Frame rate : 0.237 FPS<br>
Count of elements : 307<br>
Stream size : 8.74 KiB (0%)<br>
Title : Indonesian<br>
Language : Indonesian<br>
Default : No<br>
Forced : No<br>
<br>
Text #13<br>
ID : 15<br>
Format : UTF-8<br>
Codec ID : S_TEXT/UTF8<br>
Codec ID/Info : UTF-8 Plain Text<br>
Duration : 21 min 4 s<br>
Bit rate : 96 b/s<br>
Frame rate : 0.254 FPS<br>
Count of elements : 321<br>
Stream size : 14.9 KiB (0%)<br>
Title : Japanese<br>
Language : Japanese<br>
Default : No<br>
Forced : No<br>
<br>
Text #14<br>
ID : 16<br>
Format : UTF-8<br>
Codec ID : S_TEXT/UTF8<br>
Codec ID/Info : UTF-8 Plain Text<br>
Duration : 21 min 36 s<br>
Bit rate : 77 b/s<br>
Frame rate : 0.258 FPS<br>
Count of elements : 335<br>
Stream size : 12.2 KiB (0%)<br>
Title : Korean<br>
Language : Korean<br>
Default : No<br>
Forced : No<br>
<br>
Text #15<br>
ID : 17<br>
Format : UTF-8<br>
Codec ID : S_TEXT/UTF8<br>
Codec ID/Info : UTF-8 Plain Text<br>
Duration : 21 min 29 s<br>
Bit rate : 55 b/s<br>
Frame rate : 0.240 FPS<br>
Count of elements : 310<br>
Stream size : 8.67 KiB (0%)<br>
Title : Norwegian Bokmal<br>
Language : Norwegian Bokmal<br>
Default : No<br>
Forced : No<br>
<br>
Text #16<br>
ID : 18<br>
Format : UTF-8<br>
Codec ID : S_TEXT/UTF8<br>
Codec ID/Info : UTF-8 Plain Text<br>
Duration : 21 min 29 s<br>
Bit rate : 57 b/s<br>
Frame rate : 0.252 FPS<br>
Count of elements : 325<br>
Stream size : 9.08 KiB (0%)<br>
Title : European Spanish<br>
Language : Spanish<br>
Default : No<br>
Forced : No<br>
<br>
Text #17<br>
ID : 19<br>
Format : UTF-8<br>
Codec ID : S_TEXT/UTF8<br>
Codec ID/Info : UTF-8 Plain Text<br>
Duration : 21 min 29 s<br>
Bit rate : 57 b/s<br>
Frame rate : 0.229 FPS<br>
Count of elements : 295<br>
Stream size : 9.05 KiB (0%)<br>
Title : Swedish<br>
Language : Swedish<br>
Default : No<br>
Forced : No<br>
<br>
Text #18<br>
ID : 20<br>
Format : UTF-8<br>
Codec ID : S_TEXT/UTF8<br>
Codec ID/Info : UTF-8 Plain Text<br>
Duration : 21 min 36 s<br>
Bit rate : 154 b/s<br>
Frame rate : 0.227 FPS<br>
Count of elements : 294<br>
Stream size : 24.5 KiB (0%)<br>
Title : Thai<br>
Language : Thai<br>
Default : No<br>
Forced : No<br>
<br>
Text #19<br>
ID : 21<br>
Format : UTF-8<br>
Codec ID : S_TEXT/UTF8<br>
Codec ID/Info : UTF-8 Plain Text<br>
Duration : 21 min 36 s<br>
Bit rate : 81 b/s<br>
Frame rate : 0.241 FPS<br>
Count of elements : 312<br>
Stream size : 13.0 KiB (0%)<br>
Title : Vietnamese<br>
Language : Vietnamese<br>
Default : No<br>
Forced : No</div>
</div><br>
Screenshots:<br>
<img src="https://i.imgur.com/U5B1466.jpg" class="bbCodeImage LbImage" alt="[​IMG]" data-url="https://i.imgur.com/U5B1466.jpg" style=""> <br>
<br>
<div class="bbCodeBlock bbCodeVfcHH HiddenContent">
<div class="attribution type">Hidden Content:</div>
<blockquote>You must either reply or click 'Like' to see the hidden information contained here.</blockquote>
</div>
<div class="messageTextEndMarker">&nbsp;</div>
</blockquote>
</article>]]></description>
                <author><![CDATA[LazyRips]]></author>
                </item>

                
                <item>
                <title><![CDATA[【HD Live Performances】HDTV - DAVINCHI &amp; 2AM - Confession of a friend / 8282 Live @ SBS Gayo Daejun 2009 1080i HDTV MPEG2 DD2.0-XXI]]></title>
                <link><![CDATA[https://sharemania.us/threads/davinchi-2am-confession-of-a-friend-8282-live-sbs-gayo-daejun-2009-1080i-hdtv-mpeg2-dd2-0-xxi.229212/]]></link>
                <description><![CDATA[<article>
<blockquote class="messageText SelectQuoteContainer ugc baseHtml">
<img src="https://imgur.com/zxUaKOj.png" class="bbCodeImage LbImage" alt="[​IMG]" data-url="https://imgur.com/zxUaKOj.png" style=""> <br>
<div style="text-align: center">
<div class="bbCodeBlock bbCodeVfcHH HiddenContent">
<div class="attribution type">Hidden Content:</div>
<blockquote>You must either reply or click 'Like' to see the hidden information contained here.</blockquote>
</div></div>
<div class="messageTextEndMarker">&nbsp;</div>
</blockquote>
</article>]]></description>
                <author><![CDATA[XXI]]></author>
                </item>

                </channel></rss>